# xmcd
#
# Track frame offsets: 
#        150
#        25575
#        51089
#        64375
#        86462
#        107088
#        128353
#        148115
#        168735
#        185897
#
# Disc length: 2723 seconds
#
# Revision: 0
# Processed by: cddbd v1.5.2PL0 Copyright (c) Steve Scherf et al.
# Submitted via: ExactAudioCopy v1.0b3
#
DISCID=8a0aa10a
DTITLE=Crowbar - The Serpent Only Lies
DYEAR=2016
DGENRE=Sludge
TTITLE0=Falling While Rising
TTITLE1=Plasmic And Pure
TTITLE2=I Am The Storm
TTITLE3=Surviving The Abyss
TTITLE4=The Serpent Only Lies
TTITLE5=The Enemy Beside You
TTITLE6=Embrace The Light
TTITLE7=On Holy Ground
TTITLE8=Song Of The Dunes
TTITLE9=As I Heal
EXTD=
EXTT0=
EXTT1=
EXTT2=
EXTT3=
EXTT4=
EXTT5=
EXTT6=
EXTT7=
EXTT8=
EXTT9=
PLAYORDER=
